<mxfile host="app.diagrams.net" modified="2023-12-14T08:21:07.746Z" agent="Mozilla/5.0 (Windows NT 10.0; Win64; x64) AppleWebKit/537.36 (KHTML, like Gecko) Chrome/120.0.0.0 Safari/537.36" etag="SiwePtFd1Nf-spdgU2RV" version="22.1.8" type="github">
  <diagram name="ページ1" id="Z29e8G-SaEfBEa26-e1N">
    <mxGraphModel dx="1323" dy="763" grid="1" gridSize="10" guides="1" tooltips="1" connect="1" arrows="1" fold="1" page="1" pageScale="1" pageWidth="827" pageHeight="1169" math="0" shadow="0">
      <root>
        <mxCell id="0" />
        <mxCell id="1" parent="0" />
        <mxCell id="IpOEvODAjYZc1RXMCT56-1" value="" style="rounded=0;whiteSpace=wrap;html=1;fillColor=#f5f5f5;fontColor=#333333;strokeColor=#666666;" vertex="1" parent="1">
          <mxGeometry x="3998" y="150" width="3170" height="2470" as="geometry" />
        </mxCell>
        <mxCell id="IpOEvODAjYZc1RXMCT56-2" value="&lt;font style=&quot;font-size: 100px;&quot;&gt;ER図&lt;/font&gt;" style="rounded=1;whiteSpace=wrap;html=1;fontStyle=5" vertex="1" parent="1">
          <mxGeometry x="4038" y="100" width="430" height="160" as="geometry" />
        </mxCell>
        <mxCell id="IpOEvODAjYZc1RXMCT56-3" value="" style="rounded=0;whiteSpace=wrap;html=1;" vertex="1" parent="1">
          <mxGeometry x="4118" y="1560" width="2870" height="930" as="geometry" />
        </mxCell>
        <mxCell id="IpOEvODAjYZc1RXMCT56-4" value="" style="group" vertex="1" connectable="0" parent="1">
          <mxGeometry x="4128" y="410" width="2870" height="2190" as="geometry" />
        </mxCell>
        <mxCell id="IpOEvODAjYZc1RXMCT56-5" value="" style="rounded=0;whiteSpace=wrap;html=1;" vertex="1" parent="IpOEvODAjYZc1RXMCT56-4">
          <mxGeometry width="2870" height="930" as="geometry" />
        </mxCell>
        <mxCell id="IpOEvODAjYZc1RXMCT56-6" value="users" style="shape=table;startSize=30;container=1;collapsible=1;childLayout=tableLayout;fixedRows=1;rowLines=0;fontStyle=1;align=center;resizeLast=1;html=1;" vertex="1" parent="IpOEvODAjYZc1RXMCT56-4">
          <mxGeometry x="785" y="285" width="561" height="240" as="geometry" />
        </mxCell>
        <mxCell id="IpOEvODAjYZc1RXMCT56-7" value="" style="shape=tableRow;horizontal=0;startSize=0;swimlaneHead=0;swimlaneBody=0;fillColor=none;collapsible=0;dropTarget=0;points=[[0,0.5],[1,0.5]];portConstraint=eastwest;top=0;left=0;right=0;bottom=1;" vertex="1" parent="IpOEvODAjYZc1RXMCT56-6">
          <mxGeometry y="30" width="561" height="30" as="geometry" />
        </mxCell>
        <mxCell id="IpOEvODAjYZc1RXMCT56-8" value="PK" style="shape=partialRectangle;connectable=0;fillColor=none;top=0;left=0;bottom=0;right=0;fontStyle=1;overflow=hidden;whiteSpace=wrap;html=1;" vertex="1" parent="IpOEvODAjYZc1RXMCT56-7">
          <mxGeometry width="30" height="30" as="geometry">
            <mxRectangle width="30" height="30" as="alternateBounds" />
          </mxGeometry>
        </mxCell>
        <mxCell id="IpOEvODAjYZc1RXMCT56-9" value="id" style="shape=partialRectangle;connectable=0;fillColor=none;top=0;left=0;bottom=0;right=0;align=left;spacingLeft=6;fontStyle=5;overflow=hidden;whiteSpace=wrap;html=1;" vertex="1" parent="IpOEvODAjYZc1RXMCT56-7">
          <mxGeometry x="30" width="150" height="30" as="geometry">
            <mxRectangle width="150" height="30" as="alternateBounds" />
          </mxGeometry>
        </mxCell>
        <mxCell id="IpOEvODAjYZc1RXMCT56-10" value="Integer" style="shape=partialRectangle;connectable=0;fillColor=none;top=0;left=0;bottom=0;right=0;align=left;spacingLeft=6;fontStyle=5;overflow=hidden;whiteSpace=wrap;html=1;" vertex="1" parent="IpOEvODAjYZc1RXMCT56-7">
          <mxGeometry x="180" width="201" height="30" as="geometry">
            <mxRectangle width="201" height="30" as="alternateBounds" />
          </mxGeometry>
        </mxCell>
        <mxCell id="IpOEvODAjYZc1RXMCT56-11" value="Auto Increment" style="shape=partialRectangle;connectable=0;fillColor=none;top=0;left=0;bottom=0;right=0;align=left;spacingLeft=6;fontStyle=5;overflow=hidden;whiteSpace=wrap;html=1;" vertex="1" parent="IpOEvODAjYZc1RXMCT56-7">
          <mxGeometry x="381" width="180" height="30" as="geometry">
            <mxRectangle width="180" height="30" as="alternateBounds" />
          </mxGeometry>
        </mxCell>
        <mxCell id="IpOEvODAjYZc1RXMCT56-12" value="" style="shape=tableRow;horizontal=0;startSize=0;swimlaneHead=0;swimlaneBody=0;fillColor=none;collapsible=0;dropTarget=0;points=[[0,0.5],[1,0.5]];portConstraint=eastwest;top=0;left=0;right=0;bottom=0;" vertex="1" parent="IpOEvODAjYZc1RXMCT56-6">
          <mxGeometry y="60" width="561" height="30" as="geometry" />
        </mxCell>
        <mxCell id="IpOEvODAjYZc1RXMCT56-13" value="" style="shape=partialRectangle;connectable=0;fillColor=none;top=0;left=0;bottom=0;right=0;editable=1;overflow=hidden;whiteSpace=wrap;html=1;" vertex="1" parent="IpOEvODAjYZc1RXMCT56-12">
          <mxGeometry width="30" height="30" as="geometry">
            <mxRectangle width="30" height="30" as="alternateBounds" />
          </mxGeometry>
        </mxCell>
        <mxCell id="IpOEvODAjYZc1RXMCT56-14" value="device_id" style="shape=partialRectangle;connectable=0;fillColor=none;top=0;left=0;bottom=0;right=0;align=left;spacingLeft=6;overflow=hidden;whiteSpace=wrap;html=1;" vertex="1" parent="IpOEvODAjYZc1RXMCT56-12">
          <mxGeometry x="30" width="150" height="30" as="geometry">
            <mxRectangle width="150" height="30" as="alternateBounds" />
          </mxGeometry>
        </mxCell>
        <mxCell id="IpOEvODAjYZc1RXMCT56-15" value="VARCHAR(12)" style="shape=partialRectangle;connectable=0;fillColor=none;top=0;left=0;bottom=0;right=0;align=left;spacingLeft=6;overflow=hidden;whiteSpace=wrap;html=1;" vertex="1" parent="IpOEvODAjYZc1RXMCT56-12">
          <mxGeometry x="180" width="201" height="30" as="geometry">
            <mxRectangle width="201" height="30" as="alternateBounds" />
          </mxGeometry>
        </mxCell>
        <mxCell id="IpOEvODAjYZc1RXMCT56-16" value="Not Null , unique" style="shape=partialRectangle;connectable=0;fillColor=none;top=0;left=0;bottom=0;right=0;align=left;spacingLeft=6;overflow=hidden;whiteSpace=wrap;html=1;" vertex="1" parent="IpOEvODAjYZc1RXMCT56-12">
          <mxGeometry x="381" width="180" height="30" as="geometry">
            <mxRectangle width="180" height="30" as="alternateBounds" />
          </mxGeometry>
        </mxCell>
        <mxCell id="IpOEvODAjYZc1RXMCT56-17" style="shape=tableRow;horizontal=0;startSize=0;swimlaneHead=0;swimlaneBody=0;fillColor=none;collapsible=0;dropTarget=0;points=[[0,0.5],[1,0.5]];portConstraint=eastwest;top=0;left=0;right=0;bottom=0;" vertex="1" parent="IpOEvODAjYZc1RXMCT56-6">
          <mxGeometry y="90" width="561" height="30" as="geometry" />
        </mxCell>
        <mxCell id="IpOEvODAjYZc1RXMCT56-18" style="shape=partialRectangle;connectable=0;fillColor=none;top=0;left=0;bottom=0;right=0;editable=1;overflow=hidden;whiteSpace=wrap;html=1;" vertex="1" parent="IpOEvODAjYZc1RXMCT56-17">
          <mxGeometry width="30" height="30" as="geometry">
            <mxRectangle width="30" height="30" as="alternateBounds" />
          </mxGeometry>
        </mxCell>
        <mxCell id="IpOEvODAjYZc1RXMCT56-19" value="&lt;div&gt;&lt;span data-darkreader-inline-color=&quot;&quot; data-darkreader-inline-bgcolor=&quot;&quot; style=&quot;background-color: initial; color: rgb(0, 0, 0); --darkreader-inline-bgcolor: initial; --darkreader-inline-color: #dedcd9;&quot;&gt;name&lt;/span&gt;&lt;br&gt;&lt;/div&gt;" style="shape=partialRectangle;connectable=0;fillColor=none;top=0;left=0;bottom=0;right=0;align=left;spacingLeft=6;overflow=hidden;whiteSpace=wrap;html=1;" vertex="1" parent="IpOEvODAjYZc1RXMCT56-17">
          <mxGeometry x="30" width="150" height="30" as="geometry">
            <mxRectangle width="150" height="30" as="alternateBounds" />
          </mxGeometry>
        </mxCell>
        <mxCell id="IpOEvODAjYZc1RXMCT56-20" value="VARCHAR(24)" style="shape=partialRectangle;connectable=0;fillColor=none;top=0;left=0;bottom=0;right=0;align=left;spacingLeft=6;overflow=hidden;whiteSpace=wrap;html=1;" vertex="1" parent="IpOEvODAjYZc1RXMCT56-17">
          <mxGeometry x="180" width="201" height="30" as="geometry">
            <mxRectangle width="201" height="30" as="alternateBounds" />
          </mxGeometry>
        </mxCell>
        <mxCell id="IpOEvODAjYZc1RXMCT56-21" value="Not Null" style="shape=partialRectangle;connectable=0;fillColor=none;top=0;left=0;bottom=0;right=0;align=left;spacingLeft=6;overflow=hidden;whiteSpace=wrap;html=1;" vertex="1" parent="IpOEvODAjYZc1RXMCT56-17">
          <mxGeometry x="381" width="180" height="30" as="geometry">
            <mxRectangle width="180" height="30" as="alternateBounds" />
          </mxGeometry>
        </mxCell>
        <mxCell id="IpOEvODAjYZc1RXMCT56-22" style="shape=tableRow;horizontal=0;startSize=0;swimlaneHead=0;swimlaneBody=0;fillColor=none;collapsible=0;dropTarget=0;points=[[0,0.5],[1,0.5]];portConstraint=eastwest;top=0;left=0;right=0;bottom=0;" vertex="1" parent="IpOEvODAjYZc1RXMCT56-6">
          <mxGeometry y="120" width="561" height="30" as="geometry" />
        </mxCell>
        <mxCell id="IpOEvODAjYZc1RXMCT56-23" style="shape=partialRectangle;connectable=0;fillColor=none;top=0;left=0;bottom=0;right=0;editable=1;overflow=hidden;whiteSpace=wrap;html=1;" vertex="1" parent="IpOEvODAjYZc1RXMCT56-22">
          <mxGeometry width="30" height="30" as="geometry">
            <mxRectangle width="30" height="30" as="alternateBounds" />
          </mxGeometry>
        </mxCell>
        <mxCell id="IpOEvODAjYZc1RXMCT56-24" value="e-mail" style="shape=partialRectangle;connectable=0;fillColor=none;top=0;left=0;bottom=0;right=0;align=left;spacingLeft=6;overflow=hidden;whiteSpace=wrap;html=1;" vertex="1" parent="IpOEvODAjYZc1RXMCT56-22">
          <mxGeometry x="30" width="150" height="30" as="geometry">
            <mxRectangle width="150" height="30" as="alternateBounds" />
          </mxGeometry>
        </mxCell>
        <mxCell id="IpOEvODAjYZc1RXMCT56-25" value="VARCHAR(24)" style="shape=partialRectangle;connectable=0;fillColor=none;top=0;left=0;bottom=0;right=0;align=left;spacingLeft=6;overflow=hidden;whiteSpace=wrap;html=1;" vertex="1" parent="IpOEvODAjYZc1RXMCT56-22">
          <mxGeometry x="180" width="201" height="30" as="geometry">
            <mxRectangle width="201" height="30" as="alternateBounds" />
          </mxGeometry>
        </mxCell>
        <mxCell id="IpOEvODAjYZc1RXMCT56-26" value="Not Null , unique" style="shape=partialRectangle;connectable=0;fillColor=none;top=0;left=0;bottom=0;right=0;align=left;spacingLeft=6;overflow=hidden;whiteSpace=wrap;html=1;" vertex="1" parent="IpOEvODAjYZc1RXMCT56-22">
          <mxGeometry x="381" width="180" height="30" as="geometry">
            <mxRectangle width="180" height="30" as="alternateBounds" />
          </mxGeometry>
        </mxCell>
        <mxCell id="IpOEvODAjYZc1RXMCT56-27" value="" style="shape=tableRow;horizontal=0;startSize=0;swimlaneHead=0;swimlaneBody=0;fillColor=none;collapsible=0;dropTarget=0;points=[[0,0.5],[1,0.5]];portConstraint=eastwest;top=0;left=0;right=0;bottom=0;" vertex="1" parent="IpOEvODAjYZc1RXMCT56-6">
          <mxGeometry y="150" width="561" height="30" as="geometry" />
        </mxCell>
        <mxCell id="IpOEvODAjYZc1RXMCT56-28" value="" style="shape=partialRectangle;connectable=0;fillColor=none;top=0;left=0;bottom=0;right=0;editable=1;overflow=hidden;whiteSpace=wrap;html=1;" vertex="1" parent="IpOEvODAjYZc1RXMCT56-27">
          <mxGeometry width="30" height="30" as="geometry">
            <mxRectangle width="30" height="30" as="alternateBounds" />
          </mxGeometry>
        </mxCell>
        <mxCell id="IpOEvODAjYZc1RXMCT56-29" value="password" style="shape=partialRectangle;connectable=0;fillColor=none;top=0;left=0;bottom=0;right=0;align=left;spacingLeft=6;overflow=hidden;whiteSpace=wrap;html=1;" vertex="1" parent="IpOEvODAjYZc1RXMCT56-27">
          <mxGeometry x="30" width="150" height="30" as="geometry">
            <mxRectangle width="150" height="30" as="alternateBounds" />
          </mxGeometry>
        </mxCell>
        <mxCell id="IpOEvODAjYZc1RXMCT56-30" value="VARCHAR(12)" style="shape=partialRectangle;connectable=0;fillColor=none;top=0;left=0;bottom=0;right=0;align=left;spacingLeft=6;overflow=hidden;whiteSpace=wrap;html=1;" vertex="1" parent="IpOEvODAjYZc1RXMCT56-27">
          <mxGeometry x="180" width="201" height="30" as="geometry">
            <mxRectangle width="201" height="30" as="alternateBounds" />
          </mxGeometry>
        </mxCell>
        <mxCell id="IpOEvODAjYZc1RXMCT56-31" value="Not Null" style="shape=partialRectangle;connectable=0;fillColor=none;top=0;left=0;bottom=0;right=0;align=left;spacingLeft=6;overflow=hidden;whiteSpace=wrap;html=1;" vertex="1" parent="IpOEvODAjYZc1RXMCT56-27">
          <mxGeometry x="381" width="180" height="30" as="geometry">
            <mxRectangle width="180" height="30" as="alternateBounds" />
          </mxGeometry>
        </mxCell>
        <mxCell id="IpOEvODAjYZc1RXMCT56-32" style="shape=tableRow;horizontal=0;startSize=0;swimlaneHead=0;swimlaneBody=0;fillColor=none;collapsible=0;dropTarget=0;points=[[0,0.5],[1,0.5]];portConstraint=eastwest;top=0;left=0;right=0;bottom=0;" vertex="1" parent="IpOEvODAjYZc1RXMCT56-6">
          <mxGeometry y="180" width="561" height="30" as="geometry" />
        </mxCell>
        <mxCell id="IpOEvODAjYZc1RXMCT56-33" style="shape=partialRectangle;connectable=0;fillColor=none;top=0;left=0;bottom=0;right=0;editable=1;overflow=hidden;whiteSpace=wrap;html=1;" vertex="1" parent="IpOEvODAjYZc1RXMCT56-32">
          <mxGeometry width="30" height="30" as="geometry">
            <mxRectangle width="30" height="30" as="alternateBounds" />
          </mxGeometry>
        </mxCell>
        <mxCell id="IpOEvODAjYZc1RXMCT56-34" value="is_bot" style="shape=partialRectangle;connectable=0;fillColor=none;top=0;left=0;bottom=0;right=0;align=left;spacingLeft=6;overflow=hidden;whiteSpace=wrap;html=1;" vertex="1" parent="IpOEvODAjYZc1RXMCT56-32">
          <mxGeometry x="30" width="150" height="30" as="geometry">
            <mxRectangle width="150" height="30" as="alternateBounds" />
          </mxGeometry>
        </mxCell>
        <mxCell id="IpOEvODAjYZc1RXMCT56-35" value="BOOLEAN" style="shape=partialRectangle;connectable=0;fillColor=none;top=0;left=0;bottom=0;right=0;align=left;spacingLeft=6;overflow=hidden;whiteSpace=wrap;html=1;" vertex="1" parent="IpOEvODAjYZc1RXMCT56-32">
          <mxGeometry x="180" width="201" height="30" as="geometry">
            <mxRectangle width="201" height="30" as="alternateBounds" />
          </mxGeometry>
        </mxCell>
        <mxCell id="IpOEvODAjYZc1RXMCT56-36" value="Not Null, default:false" style="shape=partialRectangle;connectable=0;fillColor=none;top=0;left=0;bottom=0;right=0;align=left;spacingLeft=6;overflow=hidden;whiteSpace=wrap;html=1;" vertex="1" parent="IpOEvODAjYZc1RXMCT56-32">
          <mxGeometry x="381" width="180" height="30" as="geometry">
            <mxRectangle width="180" height="30" as="alternateBounds" />
          </mxGeometry>
        </mxCell>
        <mxCell id="IpOEvODAjYZc1RXMCT56-37" style="shape=tableRow;horizontal=0;startSize=0;swimlaneHead=0;swimlaneBody=0;fillColor=none;collapsible=0;dropTarget=0;points=[[0,0.5],[1,0.5]];portConstraint=eastwest;top=0;left=0;right=0;bottom=0;" vertex="1" parent="IpOEvODAjYZc1RXMCT56-6">
          <mxGeometry y="210" width="561" height="30" as="geometry" />
        </mxCell>
        <mxCell id="IpOEvODAjYZc1RXMCT56-38" style="shape=partialRectangle;connectable=0;fillColor=none;top=0;left=0;bottom=0;right=0;editable=1;overflow=hidden;whiteSpace=wrap;html=1;" vertex="1" parent="IpOEvODAjYZc1RXMCT56-37">
          <mxGeometry width="30" height="30" as="geometry">
            <mxRectangle width="30" height="30" as="alternateBounds" />
          </mxGeometry>
        </mxCell>
        <mxCell id="IpOEvODAjYZc1RXMCT56-39" value="create_at" style="shape=partialRectangle;connectable=0;fillColor=none;top=0;left=0;bottom=0;right=0;align=left;spacingLeft=6;overflow=hidden;whiteSpace=wrap;html=1;" vertex="1" parent="IpOEvODAjYZc1RXMCT56-37">
          <mxGeometry x="30" width="150" height="30" as="geometry">
            <mxRectangle width="150" height="30" as="alternateBounds" />
          </mxGeometry>
        </mxCell>
        <mxCell id="IpOEvODAjYZc1RXMCT56-40" value="TIMESTAMP" style="shape=partialRectangle;connectable=0;fillColor=none;top=0;left=0;bottom=0;right=0;align=left;spacingLeft=6;overflow=hidden;whiteSpace=wrap;html=1;" vertex="1" parent="IpOEvODAjYZc1RXMCT56-37">
          <mxGeometry x="180" width="201" height="30" as="geometry">
            <mxRectangle width="201" height="30" as="alternateBounds" />
          </mxGeometry>
        </mxCell>
        <mxCell id="IpOEvODAjYZc1RXMCT56-41" value="Default" style="shape=partialRectangle;connectable=0;fillColor=none;top=0;left=0;bottom=0;right=0;align=left;spacingLeft=6;overflow=hidden;whiteSpace=wrap;html=1;" vertex="1" parent="IpOEvODAjYZc1RXMCT56-37">
          <mxGeometry x="381" width="180" height="30" as="geometry">
            <mxRectangle width="180" height="30" as="alternateBounds" />
          </mxGeometry>
        </mxCell>
        <mxCell id="IpOEvODAjYZc1RXMCT56-42" value="settings" style="shape=table;startSize=30;container=1;collapsible=1;childLayout=tableLayout;fixedRows=1;rowLines=0;fontStyle=1;align=center;resizeLast=1;html=1;" vertex="1" parent="IpOEvODAjYZc1RXMCT56-4">
          <mxGeometry x="75" y="285" width="561" height="180" as="geometry" />
        </mxCell>
        <mxCell id="IpOEvODAjYZc1RXMCT56-43" value="" style="shape=tableRow;horizontal=0;startSize=0;swimlaneHead=0;swimlaneBody=0;fillColor=none;collapsible=0;dropTarget=0;points=[[0,0.5],[1,0.5]];portConstraint=eastwest;top=0;left=0;right=0;bottom=1;" vertex="1" parent="IpOEvODAjYZc1RXMCT56-42">
          <mxGeometry y="30" width="561" height="30" as="geometry" />
        </mxCell>
        <mxCell id="IpOEvODAjYZc1RXMCT56-44" value="PK" style="shape=partialRectangle;connectable=0;fillColor=none;top=0;left=0;bottom=0;right=0;fontStyle=1;overflow=hidden;whiteSpace=wrap;html=1;" vertex="1" parent="IpOEvODAjYZc1RXMCT56-43">
          <mxGeometry width="30" height="30" as="geometry">
            <mxRectangle width="30" height="30" as="alternateBounds" />
          </mxGeometry>
        </mxCell>
        <mxCell id="IpOEvODAjYZc1RXMCT56-45" value="id" style="shape=partialRectangle;connectable=0;fillColor=none;top=0;left=0;bottom=0;right=0;align=left;spacingLeft=6;fontStyle=5;overflow=hidden;whiteSpace=wrap;html=1;" vertex="1" parent="IpOEvODAjYZc1RXMCT56-43">
          <mxGeometry x="30" width="150" height="30" as="geometry">
            <mxRectangle width="150" height="30" as="alternateBounds" />
          </mxGeometry>
        </mxCell>
        <mxCell id="IpOEvODAjYZc1RXMCT56-46" value="INTEGER" style="shape=partialRectangle;connectable=0;fillColor=none;top=0;left=0;bottom=0;right=0;align=left;spacingLeft=6;fontStyle=5;overflow=hidden;whiteSpace=wrap;html=1;" vertex="1" parent="IpOEvODAjYZc1RXMCT56-43">
          <mxGeometry x="180" width="201" height="30" as="geometry">
            <mxRectangle width="201" height="30" as="alternateBounds" />
          </mxGeometry>
        </mxCell>
        <mxCell id="IpOEvODAjYZc1RXMCT56-47" value="Auto Increment" style="shape=partialRectangle;connectable=0;fillColor=none;top=0;left=0;bottom=0;right=0;align=left;spacingLeft=6;fontStyle=5;overflow=hidden;whiteSpace=wrap;html=1;" vertex="1" parent="IpOEvODAjYZc1RXMCT56-43">
          <mxGeometry x="381" width="180" height="30" as="geometry">
            <mxRectangle width="180" height="30" as="alternateBounds" />
          </mxGeometry>
        </mxCell>
        <mxCell id="IpOEvODAjYZc1RXMCT56-48" style="shape=tableRow;horizontal=0;startSize=0;swimlaneHead=0;swimlaneBody=0;fillColor=none;collapsible=0;dropTarget=0;points=[[0,0.5],[1,0.5]];portConstraint=eastwest;top=0;left=0;right=0;bottom=0;" vertex="1" parent="IpOEvODAjYZc1RXMCT56-42">
          <mxGeometry y="60" width="561" height="30" as="geometry" />
        </mxCell>
        <mxCell id="IpOEvODAjYZc1RXMCT56-49" value="FK" style="shape=partialRectangle;connectable=0;fillColor=none;top=0;left=0;bottom=0;right=0;editable=1;overflow=hidden;whiteSpace=wrap;html=1;" vertex="1" parent="IpOEvODAjYZc1RXMCT56-48">
          <mxGeometry width="30" height="30" as="geometry">
            <mxRectangle width="30" height="30" as="alternateBounds" />
          </mxGeometry>
        </mxCell>
        <mxCell id="IpOEvODAjYZc1RXMCT56-50" value="user_id" style="shape=partialRectangle;connectable=0;fillColor=none;top=0;left=0;bottom=0;right=0;align=left;spacingLeft=6;overflow=hidden;whiteSpace=wrap;html=1;" vertex="1" parent="IpOEvODAjYZc1RXMCT56-48">
          <mxGeometry x="30" width="150" height="30" as="geometry">
            <mxRectangle width="150" height="30" as="alternateBounds" />
          </mxGeometry>
        </mxCell>
        <mxCell id="IpOEvODAjYZc1RXMCT56-51" value="INTEGER" style="shape=partialRectangle;connectable=0;fillColor=none;top=0;left=0;bottom=0;right=0;align=left;spacingLeft=6;overflow=hidden;whiteSpace=wrap;html=1;" vertex="1" parent="IpOEvODAjYZc1RXMCT56-48">
          <mxGeometry x="180" width="201" height="30" as="geometry">
            <mxRectangle width="201" height="30" as="alternateBounds" />
          </mxGeometry>
        </mxCell>
        <mxCell id="IpOEvODAjYZc1RXMCT56-52" value="Not Null" style="shape=partialRectangle;connectable=0;fillColor=none;top=0;left=0;bottom=0;right=0;align=left;spacingLeft=6;overflow=hidden;whiteSpace=wrap;html=1;" vertex="1" parent="IpOEvODAjYZc1RXMCT56-48">
          <mxGeometry x="381" width="180" height="30" as="geometry">
            <mxRectangle width="180" height="30" as="alternateBounds" />
          </mxGeometry>
        </mxCell>
        <mxCell id="IpOEvODAjYZc1RXMCT56-53" style="shape=tableRow;horizontal=0;startSize=0;swimlaneHead=0;swimlaneBody=0;fillColor=none;collapsible=0;dropTarget=0;points=[[0,0.5],[1,0.5]];portConstraint=eastwest;top=0;left=0;right=0;bottom=0;" vertex="1" parent="IpOEvODAjYZc1RXMCT56-42">
          <mxGeometry y="90" width="561" height="30" as="geometry" />
        </mxCell>
        <mxCell id="IpOEvODAjYZc1RXMCT56-54" style="shape=partialRectangle;connectable=0;fillColor=none;top=0;left=0;bottom=0;right=0;editable=1;overflow=hidden;whiteSpace=wrap;html=1;" vertex="1" parent="IpOEvODAjYZc1RXMCT56-53">
          <mxGeometry width="30" height="30" as="geometry">
            <mxRectangle width="30" height="30" as="alternateBounds" />
          </mxGeometry>
        </mxCell>
        <mxCell id="IpOEvODAjYZc1RXMCT56-55" value="tomorrow_wake_up_time" style="shape=partialRectangle;connectable=0;fillColor=none;top=0;left=0;bottom=0;right=0;align=left;spacingLeft=6;overflow=hidden;whiteSpace=wrap;html=1;" vertex="1" parent="IpOEvODAjYZc1RXMCT56-53">
          <mxGeometry x="30" width="150" height="30" as="geometry">
            <mxRectangle width="150" height="30" as="alternateBounds" />
          </mxGeometry>
        </mxCell>
        <mxCell id="IpOEvODAjYZc1RXMCT56-56" value="TIME" style="shape=partialRectangle;connectable=0;fillColor=none;top=0;left=0;bottom=0;right=0;align=left;spacingLeft=6;overflow=hidden;whiteSpace=wrap;html=1;" vertex="1" parent="IpOEvODAjYZc1RXMCT56-53">
          <mxGeometry x="180" width="201" height="30" as="geometry">
            <mxRectangle width="201" height="30" as="alternateBounds" />
          </mxGeometry>
        </mxCell>
        <mxCell id="IpOEvODAjYZc1RXMCT56-57" value="Not Null" style="shape=partialRectangle;connectable=0;fillColor=none;top=0;left=0;bottom=0;right=0;align=left;spacingLeft=6;overflow=hidden;whiteSpace=wrap;html=1;" vertex="1" parent="IpOEvODAjYZc1RXMCT56-53">
          <mxGeometry x="381" width="180" height="30" as="geometry">
            <mxRectangle width="180" height="30" as="alternateBounds" />
          </mxGeometry>
        </mxCell>
        <mxCell id="IpOEvODAjYZc1RXMCT56-58" style="shape=tableRow;horizontal=0;startSize=0;swimlaneHead=0;swimlaneBody=0;fillColor=none;collapsible=0;dropTarget=0;points=[[0,0.5],[1,0.5]];portConstraint=eastwest;top=0;left=0;right=0;bottom=0;" vertex="1" parent="IpOEvODAjYZc1RXMCT56-42">
          <mxGeometry y="120" width="561" height="30" as="geometry" />
        </mxCell>
        <mxCell id="IpOEvODAjYZc1RXMCT56-59" style="shape=partialRectangle;connectable=0;fillColor=none;top=0;left=0;bottom=0;right=0;editable=1;overflow=hidden;whiteSpace=wrap;html=1;" vertex="1" parent="IpOEvODAjYZc1RXMCT56-58">
          <mxGeometry width="30" height="30" as="geometry">
            <mxRectangle width="30" height="30" as="alternateBounds" />
          </mxGeometry>
        </mxCell>
        <mxCell id="IpOEvODAjYZc1RXMCT56-60" value="yesterday_sleep_level" style="shape=partialRectangle;connectable=0;fillColor=none;top=0;left=0;bottom=0;right=0;align=left;spacingLeft=6;overflow=hidden;whiteSpace=wrap;html=1;" vertex="1" parent="IpOEvODAjYZc1RXMCT56-58">
          <mxGeometry x="30" width="150" height="30" as="geometry">
            <mxRectangle width="150" height="30" as="alternateBounds" />
          </mxGeometry>
        </mxCell>
        <mxCell id="IpOEvODAjYZc1RXMCT56-61" value="INTEGER" style="shape=partialRectangle;connectable=0;fillColor=none;top=0;left=0;bottom=0;right=0;align=left;spacingLeft=6;overflow=hidden;whiteSpace=wrap;html=1;" vertex="1" parent="IpOEvODAjYZc1RXMCT56-58">
          <mxGeometry x="180" width="201" height="30" as="geometry">
            <mxRectangle width="201" height="30" as="alternateBounds" />
          </mxGeometry>
        </mxCell>
        <mxCell id="IpOEvODAjYZc1RXMCT56-62" value="Not Null" style="shape=partialRectangle;connectable=0;fillColor=none;top=0;left=0;bottom=0;right=0;align=left;spacingLeft=6;overflow=hidden;whiteSpace=wrap;html=1;" vertex="1" parent="IpOEvODAjYZc1RXMCT56-58">
          <mxGeometry x="381" width="180" height="30" as="geometry">
            <mxRectangle width="180" height="30" as="alternateBounds" />
          </mxGeometry>
        </mxCell>
        <mxCell id="IpOEvODAjYZc1RXMCT56-63" value="" style="shape=tableRow;horizontal=0;startSize=0;swimlaneHead=0;swimlaneBody=0;fillColor=none;collapsible=0;dropTarget=0;points=[[0,0.5],[1,0.5]];portConstraint=eastwest;top=0;left=0;right=0;bottom=0;" vertex="1" parent="IpOEvODAjYZc1RXMCT56-42">
          <mxGeometry y="150" width="561" height="30" as="geometry" />
        </mxCell>
        <mxCell id="IpOEvODAjYZc1RXMCT56-64" value="" style="shape=partialRectangle;connectable=0;fillColor=none;top=0;left=0;bottom=0;right=0;editable=1;overflow=hidden;whiteSpace=wrap;html=1;" vertex="1" parent="IpOEvODAjYZc1RXMCT56-63">
          <mxGeometry width="30" height="30" as="geometry">
            <mxRectangle width="30" height="30" as="alternateBounds" />
          </mxGeometry>
        </mxCell>
        <mxCell id="IpOEvODAjYZc1RXMCT56-65" value="setting_at" style="shape=partialRectangle;connectable=0;fillColor=none;top=0;left=0;bottom=0;right=0;align=left;spacingLeft=6;overflow=hidden;whiteSpace=wrap;html=1;" vertex="1" parent="IpOEvODAjYZc1RXMCT56-63">
          <mxGeometry x="30" width="150" height="30" as="geometry">
            <mxRectangle width="150" height="30" as="alternateBounds" />
          </mxGeometry>
        </mxCell>
        <mxCell id="IpOEvODAjYZc1RXMCT56-66" value="TIMESTAMP" style="shape=partialRectangle;connectable=0;fillColor=none;top=0;left=0;bottom=0;right=0;align=left;spacingLeft=6;overflow=hidden;whiteSpace=wrap;html=1;" vertex="1" parent="IpOEvODAjYZc1RXMCT56-63">
          <mxGeometry x="180" width="201" height="30" as="geometry">
            <mxRectangle width="201" height="30" as="alternateBounds" />
          </mxGeometry>
        </mxCell>
        <mxCell id="IpOEvODAjYZc1RXMCT56-67" value="Default" style="shape=partialRectangle;connectable=0;fillColor=none;top=0;left=0;bottom=0;right=0;align=left;spacingLeft=6;overflow=hidden;whiteSpace=wrap;html=1;" vertex="1" parent="IpOEvODAjYZc1RXMCT56-63">
          <mxGeometry x="381" width="180" height="30" as="geometry">
            <mxRectangle width="180" height="30" as="alternateBounds" />
          </mxGeometry>
        </mxCell>
        <mxCell id="IpOEvODAjYZc1RXMCT56-68" value="clusters" style="shape=table;startSize=30;container=1;collapsible=1;childLayout=tableLayout;fixedRows=1;rowLines=0;fontStyle=1;align=center;resizeLast=1;html=1;" vertex="1" parent="IpOEvODAjYZc1RXMCT56-4">
          <mxGeometry x="2185" y="285" width="561" height="120" as="geometry" />
        </mxCell>
        <mxCell id="IpOEvODAjYZc1RXMCT56-69" value="" style="shape=tableRow;horizontal=0;startSize=0;swimlaneHead=0;swimlaneBody=0;fillColor=none;collapsible=0;dropTarget=0;points=[[0,0.5],[1,0.5]];portConstraint=eastwest;top=0;left=0;right=0;bottom=1;" vertex="1" parent="IpOEvODAjYZc1RXMCT56-68">
          <mxGeometry y="30" width="561" height="30" as="geometry" />
        </mxCell>
        <mxCell id="IpOEvODAjYZc1RXMCT56-70" value="PK" style="shape=partialRectangle;connectable=0;fillColor=none;top=0;left=0;bottom=0;right=0;fontStyle=1;overflow=hidden;whiteSpace=wrap;html=1;" vertex="1" parent="IpOEvODAjYZc1RXMCT56-69">
          <mxGeometry width="30" height="30" as="geometry">
            <mxRectangle width="30" height="30" as="alternateBounds" />
          </mxGeometry>
        </mxCell>
        <mxCell id="IpOEvODAjYZc1RXMCT56-71" value="id" style="shape=partialRectangle;connectable=0;fillColor=none;top=0;left=0;bottom=0;right=0;align=left;spacingLeft=6;fontStyle=5;overflow=hidden;whiteSpace=wrap;html=1;" vertex="1" parent="IpOEvODAjYZc1RXMCT56-69">
          <mxGeometry x="30" width="150" height="30" as="geometry">
            <mxRectangle width="150" height="30" as="alternateBounds" />
          </mxGeometry>
        </mxCell>
        <mxCell id="IpOEvODAjYZc1RXMCT56-72" value="INTEGER" style="shape=partialRectangle;connectable=0;fillColor=none;top=0;left=0;bottom=0;right=0;align=left;spacingLeft=6;fontStyle=5;overflow=hidden;whiteSpace=wrap;html=1;" vertex="1" parent="IpOEvODAjYZc1RXMCT56-69">
          <mxGeometry x="180" width="201" height="30" as="geometry">
            <mxRectangle width="201" height="30" as="alternateBounds" />
          </mxGeometry>
        </mxCell>
        <mxCell id="IpOEvODAjYZc1RXMCT56-73" value="Auto Increment" style="shape=partialRectangle;connectable=0;fillColor=none;top=0;left=0;bottom=0;right=0;align=left;spacingLeft=6;fontStyle=5;overflow=hidden;whiteSpace=wrap;html=1;" vertex="1" parent="IpOEvODAjYZc1RXMCT56-69">
          <mxGeometry x="381" width="180" height="30" as="geometry">
            <mxRectangle width="180" height="30" as="alternateBounds" />
          </mxGeometry>
        </mxCell>
        <mxCell id="IpOEvODAjYZc1RXMCT56-74" style="shape=tableRow;horizontal=0;startSize=0;swimlaneHead=0;swimlaneBody=0;fillColor=none;collapsible=0;dropTarget=0;points=[[0,0.5],[1,0.5]];portConstraint=eastwest;top=0;left=0;right=0;bottom=0;" vertex="1" parent="IpOEvODAjYZc1RXMCT56-68">
          <mxGeometry y="60" width="561" height="30" as="geometry" />
        </mxCell>
        <mxCell id="IpOEvODAjYZc1RXMCT56-75" style="shape=partialRectangle;connectable=0;fillColor=none;top=0;left=0;bottom=0;right=0;editable=1;overflow=hidden;whiteSpace=wrap;html=1;" vertex="1" parent="IpOEvODAjYZc1RXMCT56-74">
          <mxGeometry width="30" height="30" as="geometry">
            <mxRectangle width="30" height="30" as="alternateBounds" />
          </mxGeometry>
        </mxCell>
        <mxCell id="IpOEvODAjYZc1RXMCT56-76" value="&lt;div&gt;middle_wakeup_time&lt;/div&gt;" style="shape=partialRectangle;connectable=0;fillColor=none;top=0;left=0;bottom=0;right=0;align=left;spacingLeft=6;overflow=hidden;whiteSpace=wrap;html=1;" vertex="1" parent="IpOEvODAjYZc1RXMCT56-74">
          <mxGeometry x="30" width="150" height="30" as="geometry">
            <mxRectangle width="150" height="30" as="alternateBounds" />
          </mxGeometry>
        </mxCell>
        <mxCell id="IpOEvODAjYZc1RXMCT56-77" value="TIME" style="shape=partialRectangle;connectable=0;fillColor=none;top=0;left=0;bottom=0;right=0;align=left;spacingLeft=6;overflow=hidden;whiteSpace=wrap;html=1;" vertex="1" parent="IpOEvODAjYZc1RXMCT56-74">
          <mxGeometry x="180" width="201" height="30" as="geometry">
            <mxRectangle width="201" height="30" as="alternateBounds" />
          </mxGeometry>
        </mxCell>
        <mxCell id="IpOEvODAjYZc1RXMCT56-78" value="Not Null" style="shape=partialRectangle;connectable=0;fillColor=none;top=0;left=0;bottom=0;right=0;align=left;spacingLeft=6;overflow=hidden;whiteSpace=wrap;html=1;" vertex="1" parent="IpOEvODAjYZc1RXMCT56-74">
          <mxGeometry x="381" width="180" height="30" as="geometry">
            <mxRectangle width="180" height="30" as="alternateBounds" />
          </mxGeometry>
        </mxCell>
        <mxCell id="IpOEvODAjYZc1RXMCT56-79" value="" style="shape=tableRow;horizontal=0;startSize=0;swimlaneHead=0;swimlaneBody=0;fillColor=none;collapsible=0;dropTarget=0;points=[[0,0.5],[1,0.5]];portConstraint=eastwest;top=0;left=0;right=0;bottom=0;" vertex="1" parent="IpOEvODAjYZc1RXMCT56-68">
          <mxGeometry y="90" width="561" height="30" as="geometry" />
        </mxCell>
        <mxCell id="IpOEvODAjYZc1RXMCT56-80" value="" style="shape=partialRectangle;connectable=0;fillColor=none;top=0;left=0;bottom=0;right=0;editable=1;overflow=hidden;whiteSpace=wrap;html=1;" vertex="1" parent="IpOEvODAjYZc1RXMCT56-79">
          <mxGeometry width="30" height="30" as="geometry">
            <mxRectangle width="30" height="30" as="alternateBounds" />
          </mxGeometry>
        </mxCell>
        <mxCell id="IpOEvODAjYZc1RXMCT56-81" value="create_at" style="shape=partialRectangle;connectable=0;fillColor=none;top=0;left=0;bottom=0;right=0;align=left;spacingLeft=6;overflow=hidden;whiteSpace=wrap;html=1;" vertex="1" parent="IpOEvODAjYZc1RXMCT56-79">
          <mxGeometry x="30" width="150" height="30" as="geometry">
            <mxRectangle width="150" height="30" as="alternateBounds" />
          </mxGeometry>
        </mxCell>
        <mxCell id="IpOEvODAjYZc1RXMCT56-82" value="DATE" style="shape=partialRectangle;connectable=0;fillColor=none;top=0;left=0;bottom=0;right=0;align=left;spacingLeft=6;overflow=hidden;whiteSpace=wrap;html=1;" vertex="1" parent="IpOEvODAjYZc1RXMCT56-79">
          <mxGeometry x="180" width="201" height="30" as="geometry">
            <mxRectangle width="201" height="30" as="alternateBounds" />
          </mxGeometry>
        </mxCell>
        <mxCell id="IpOEvODAjYZc1RXMCT56-83" value="Default" style="shape=partialRectangle;connectable=0;fillColor=none;top=0;left=0;bottom=0;right=0;align=left;spacingLeft=6;overflow=hidden;whiteSpace=wrap;html=1;" vertex="1" parent="IpOEvODAjYZc1RXMCT56-79">
          <mxGeometry x="381" width="180" height="30" as="geometry">
            <mxRectangle width="180" height="30" as="alternateBounds" />
          </mxGeometry>
        </mxCell>
        <mxCell id="IpOEvODAjYZc1RXMCT56-84" value="&lt;h1&gt;備考&lt;/h1&gt;&lt;p style=&quot;font-size: 17px;&quot;&gt;クラスターは毎日変動するが、古いデータも保持する。→削除の手間を考えなくていい＆過去のデータを参照可能&lt;/p&gt;&lt;p style=&quot;font-size: 17px;&quot;&gt;userが現在所属するクラスターは中間テーブルで任意のuser_idを参照しタイムスタンプが最新のものを選択することで一意に定まる。&lt;/p&gt;&lt;p style=&quot;font-size: 17px;&quot;&gt;middle_wakeup_timeには、そのクラスターに所属するユーザーのアラームの設定時刻の平均を格納→システムが根に配置されたユーザーのアラームを鳴らす時刻として使用&lt;br&gt;&lt;/p&gt;" style="text;html=1;strokeColor=none;fillColor=none;spacing=5;spacingTop=-20;whiteSpace=wrap;overflow=hidden;rounded=0;" vertex="1" parent="IpOEvODAjYZc1RXMCT56-4">
          <mxGeometry x="2325" y="480" width="350" height="460" as="geometry" />
        </mxCell>
        <mxCell id="IpOEvODAjYZc1RXMCT56-85" value="&lt;h1&gt;備考&lt;/h1&gt;&lt;p style=&quot;font-size: 17px;&quot;&gt;前日の快眠度を入力したあとに、時刻設定欄が出現orバリデーションで快眠度の入力を強制&lt;/p&gt;&lt;p style=&quot;font-size: 17px;&quot;&gt;タイムスタンプが最新のものを適用&lt;br&gt;&lt;br&gt;yesterday_sleep_levelは①良い②普通③悪い&lt;br&gt;の三種類。平均値をとるためEnum型ではなく整数型を使用&lt;/p&gt;" style="text;html=1;strokeColor=none;fillColor=none;spacing=5;spacingTop=-20;whiteSpace=wrap;overflow=hidden;rounded=0;" vertex="1" parent="IpOEvODAjYZc1RXMCT56-4">
          <mxGeometry x="73" y="500" width="390" height="310" as="geometry" />
        </mxCell>
        <mxCell id="IpOEvODAjYZc1RXMCT56-86" value="cluster_user" style="shape=table;startSize=30;container=1;collapsible=1;childLayout=tableLayout;fixedRows=1;rowLines=0;fontStyle=1;align=center;resizeLast=1;html=1;" vertex="1" parent="IpOEvODAjYZc1RXMCT56-4">
          <mxGeometry x="1485" y="285" width="561" height="150" as="geometry" />
        </mxCell>
        <mxCell id="IpOEvODAjYZc1RXMCT56-87" value="" style="shape=tableRow;horizontal=0;startSize=0;swimlaneHead=0;swimlaneBody=0;fillColor=none;collapsible=0;dropTarget=0;points=[[0,0.5],[1,0.5]];portConstraint=eastwest;top=0;left=0;right=0;bottom=1;" vertex="1" parent="IpOEvODAjYZc1RXMCT56-86">
          <mxGeometry y="30" width="561" height="30" as="geometry" />
        </mxCell>
        <mxCell id="IpOEvODAjYZc1RXMCT56-88" value="PK" style="shape=partialRectangle;connectable=0;fillColor=none;top=0;left=0;bottom=0;right=0;fontStyle=1;overflow=hidden;whiteSpace=wrap;html=1;" vertex="1" parent="IpOEvODAjYZc1RXMCT56-87">
          <mxGeometry width="30" height="30" as="geometry">
            <mxRectangle width="30" height="30" as="alternateBounds" />
          </mxGeometry>
        </mxCell>
        <mxCell id="IpOEvODAjYZc1RXMCT56-89" value="id" style="shape=partialRectangle;connectable=0;fillColor=none;top=0;left=0;bottom=0;right=0;align=left;spacingLeft=6;fontStyle=5;overflow=hidden;whiteSpace=wrap;html=1;" vertex="1" parent="IpOEvODAjYZc1RXMCT56-87">
          <mxGeometry x="30" width="150" height="30" as="geometry">
            <mxRectangle width="150" height="30" as="alternateBounds" />
          </mxGeometry>
        </mxCell>
        <mxCell id="IpOEvODAjYZc1RXMCT56-90" value="INTEGER" style="shape=partialRectangle;connectable=0;fillColor=none;top=0;left=0;bottom=0;right=0;align=left;spacingLeft=6;fontStyle=5;overflow=hidden;whiteSpace=wrap;html=1;" vertex="1" parent="IpOEvODAjYZc1RXMCT56-87">
          <mxGeometry x="180" width="201" height="30" as="geometry">
            <mxRectangle width="201" height="30" as="alternateBounds" />
          </mxGeometry>
        </mxCell>
        <mxCell id="IpOEvODAjYZc1RXMCT56-91" value="Auto Increment" style="shape=partialRectangle;connectable=0;fillColor=none;top=0;left=0;bottom=0;right=0;align=left;spacingLeft=6;fontStyle=5;overflow=hidden;whiteSpace=wrap;html=1;" vertex="1" parent="IpOEvODAjYZc1RXMCT56-87">
          <mxGeometry x="381" width="180" height="30" as="geometry">
            <mxRectangle width="180" height="30" as="alternateBounds" />
          </mxGeometry>
        </mxCell>
        <mxCell id="IpOEvODAjYZc1RXMCT56-92" style="shape=tableRow;horizontal=0;startSize=0;swimlaneHead=0;swimlaneBody=0;fillColor=none;collapsible=0;dropTarget=0;points=[[0,0.5],[1,0.5]];portConstraint=eastwest;top=0;left=0;right=0;bottom=0;" vertex="1" parent="IpOEvODAjYZc1RXMCT56-86">
          <mxGeometry y="60" width="561" height="30" as="geometry" />
        </mxCell>
        <mxCell id="IpOEvODAjYZc1RXMCT56-93" value="FK" style="shape=partialRectangle;connectable=0;fillColor=none;top=0;left=0;bottom=0;right=0;editable=1;overflow=hidden;whiteSpace=wrap;html=1;" vertex="1" parent="IpOEvODAjYZc1RXMCT56-92">
          <mxGeometry width="30" height="30" as="geometry">
            <mxRectangle width="30" height="30" as="alternateBounds" />
          </mxGeometry>
        </mxCell>
        <mxCell id="IpOEvODAjYZc1RXMCT56-94" value="&lt;div&gt;user_id&lt;/div&gt;" style="shape=partialRectangle;connectable=0;fillColor=none;top=0;left=0;bottom=0;right=0;align=left;spacingLeft=6;overflow=hidden;whiteSpace=wrap;html=1;" vertex="1" parent="IpOEvODAjYZc1RXMCT56-92">
          <mxGeometry x="30" width="150" height="30" as="geometry">
            <mxRectangle width="150" height="30" as="alternateBounds" />
          </mxGeometry>
        </mxCell>
        <mxCell id="IpOEvODAjYZc1RXMCT56-95" value="INTEGER" style="shape=partialRectangle;connectable=0;fillColor=none;top=0;left=0;bottom=0;right=0;align=left;spacingLeft=6;overflow=hidden;whiteSpace=wrap;html=1;" vertex="1" parent="IpOEvODAjYZc1RXMCT56-92">
          <mxGeometry x="180" width="201" height="30" as="geometry">
            <mxRectangle width="201" height="30" as="alternateBounds" />
          </mxGeometry>
        </mxCell>
        <mxCell id="IpOEvODAjYZc1RXMCT56-96" value="Not Null" style="shape=partialRectangle;connectable=0;fillColor=none;top=0;left=0;bottom=0;right=0;align=left;spacingLeft=6;overflow=hidden;whiteSpace=wrap;html=1;" vertex="1" parent="IpOEvODAjYZc1RXMCT56-92">
          <mxGeometry x="381" width="180" height="30" as="geometry">
            <mxRectangle width="180" height="30" as="alternateBounds" />
          </mxGeometry>
        </mxCell>
        <mxCell id="IpOEvODAjYZc1RXMCT56-97" value="" style="shape=tableRow;horizontal=0;startSize=0;swimlaneHead=0;swimlaneBody=0;fillColor=none;collapsible=0;dropTarget=0;points=[[0,0.5],[1,0.5]];portConstraint=eastwest;top=0;left=0;right=0;bottom=0;" vertex="1" parent="IpOEvODAjYZc1RXMCT56-86">
          <mxGeometry y="90" width="561" height="30" as="geometry" />
        </mxCell>
        <mxCell id="IpOEvODAjYZc1RXMCT56-98" value="FK" style="shape=partialRectangle;connectable=0;fillColor=none;top=0;left=0;bottom=0;right=0;editable=1;overflow=hidden;whiteSpace=wrap;html=1;" vertex="1" parent="IpOEvODAjYZc1RXMCT56-97">
          <mxGeometry width="30" height="30" as="geometry">
            <mxRectangle width="30" height="30" as="alternateBounds" />
          </mxGeometry>
        </mxCell>
        <mxCell id="IpOEvODAjYZc1RXMCT56-99" value="cluster_id" style="shape=partialRectangle;connectable=0;fillColor=none;top=0;left=0;bottom=0;right=0;align=left;spacingLeft=6;overflow=hidden;whiteSpace=wrap;html=1;" vertex="1" parent="IpOEvODAjYZc1RXMCT56-97">
          <mxGeometry x="30" width="150" height="30" as="geometry">
            <mxRectangle width="150" height="30" as="alternateBounds" />
          </mxGeometry>
        </mxCell>
        <mxCell id="IpOEvODAjYZc1RXMCT56-100" value="INTEGER" style="shape=partialRectangle;connectable=0;fillColor=none;top=0;left=0;bottom=0;right=0;align=left;spacingLeft=6;overflow=hidden;whiteSpace=wrap;html=1;" vertex="1" parent="IpOEvODAjYZc1RXMCT56-97">
          <mxGeometry x="180" width="201" height="30" as="geometry">
            <mxRectangle width="201" height="30" as="alternateBounds" />
          </mxGeometry>
        </mxCell>
        <mxCell id="IpOEvODAjYZc1RXMCT56-101" value="Not Null" style="shape=partialRectangle;connectable=0;fillColor=none;top=0;left=0;bottom=0;right=0;align=left;spacingLeft=6;overflow=hidden;whiteSpace=wrap;html=1;" vertex="1" parent="IpOEvODAjYZc1RXMCT56-97">
          <mxGeometry x="381" width="180" height="30" as="geometry">
            <mxRectangle width="180" height="30" as="alternateBounds" />
          </mxGeometry>
        </mxCell>
        <mxCell id="IpOEvODAjYZc1RXMCT56-102" style="shape=tableRow;horizontal=0;startSize=0;swimlaneHead=0;swimlaneBody=0;fillColor=none;collapsible=0;dropTarget=0;points=[[0,0.5],[1,0.5]];portConstraint=eastwest;top=0;left=0;right=0;bottom=0;" vertex="1" parent="IpOEvODAjYZc1RXMCT56-86">
          <mxGeometry y="120" width="561" height="30" as="geometry" />
        </mxCell>
        <mxCell id="IpOEvODAjYZc1RXMCT56-103" style="shape=partialRectangle;connectable=0;fillColor=none;top=0;left=0;bottom=0;right=0;editable=1;overflow=hidden;whiteSpace=wrap;html=1;" vertex="1" parent="IpOEvODAjYZc1RXMCT56-102">
          <mxGeometry width="30" height="30" as="geometry">
            <mxRectangle width="30" height="30" as="alternateBounds" />
          </mxGeometry>
        </mxCell>
        <mxCell id="IpOEvODAjYZc1RXMCT56-104" value="create_at" style="shape=partialRectangle;connectable=0;fillColor=none;top=0;left=0;bottom=0;right=0;align=left;spacingLeft=6;overflow=hidden;whiteSpace=wrap;html=1;" vertex="1" parent="IpOEvODAjYZc1RXMCT56-102">
          <mxGeometry x="30" width="150" height="30" as="geometry">
            <mxRectangle width="150" height="30" as="alternateBounds" />
          </mxGeometry>
        </mxCell>
        <mxCell id="IpOEvODAjYZc1RXMCT56-105" value="DATE" style="shape=partialRectangle;connectable=0;fillColor=none;top=0;left=0;bottom=0;right=0;align=left;spacingLeft=6;overflow=hidden;whiteSpace=wrap;html=1;" vertex="1" parent="IpOEvODAjYZc1RXMCT56-102">
          <mxGeometry x="180" width="201" height="30" as="geometry">
            <mxRectangle width="201" height="30" as="alternateBounds" />
          </mxGeometry>
        </mxCell>
        <mxCell id="IpOEvODAjYZc1RXMCT56-106" value="Default" style="shape=partialRectangle;connectable=0;fillColor=none;top=0;left=0;bottom=0;right=0;align=left;spacingLeft=6;overflow=hidden;whiteSpace=wrap;html=1;" vertex="1" parent="IpOEvODAjYZc1RXMCT56-102">
          <mxGeometry x="381" width="180" height="30" as="geometry">
            <mxRectangle width="180" height="30" as="alternateBounds" />
          </mxGeometry>
        </mxCell>
        <mxCell id="IpOEvODAjYZc1RXMCT56-107" value="&lt;h1&gt;備考&lt;/h1&gt;&lt;p style=&quot;font-size: 17px;&quot;&gt;中間テーブル、フレームワークやライブラリに命名規則が設定されている場合あり。&lt;/p&gt;&lt;p style=&quot;font-size: 17px;&quot;&gt;接続①＿接続②（abc順）など&lt;/p&gt;" style="text;html=1;strokeColor=none;fillColor=none;spacing=5;spacingTop=-20;whiteSpace=wrap;overflow=hidden;rounded=0;" vertex="1" parent="IpOEvODAjYZc1RXMCT56-4">
          <mxGeometry x="1555" y="490" width="350" height="240" as="geometry" />
        </mxCell>
        <mxCell id="IpOEvODAjYZc1RXMCT56-108" value="&lt;h1&gt;注意&lt;/h1&gt;&lt;p style=&quot;&quot;&gt;create_atなどで、制約にdefaultと指定されている場合は、以下の制約を適用&lt;/p&gt;&lt;p style=&quot;&quot;&gt;&lt;br&gt;DEFAULT CURRENT_TIMESTAMP ON UPDATE CURRENT_TIMESTAMP&lt;br&gt;&lt;/p&gt;" style="text;html=1;strokeColor=none;fillColor=none;spacing=5;spacingTop=-20;whiteSpace=wrap;overflow=hidden;rounded=0;" vertex="1" parent="IpOEvODAjYZc1RXMCT56-4">
          <mxGeometry x="73" y="100" width="350" height="240" as="geometry" />
        </mxCell>
        <mxCell id="IpOEvODAjYZc1RXMCT56-109" value="&lt;h1&gt;備考&lt;/h1&gt;&lt;p style=&quot;font-size: 17px;&quot;&gt;ログインにはemailとパスワードを使用&lt;/p&gt;&lt;p style=&quot;font-size: 17px;&quot;&gt;&lt;br&gt;&lt;/p&gt;" style="text;html=1;strokeColor=none;fillColor=none;spacing=5;spacingTop=-20;whiteSpace=wrap;overflow=hidden;rounded=0;" vertex="1" parent="IpOEvODAjYZc1RXMCT56-4">
          <mxGeometry x="845" y="580" width="390" height="310" as="geometry" />
        </mxCell>
        <mxCell id="IpOEvODAjYZc1RXMCT56-110" value="" style="edgeStyle=entityRelationEdgeStyle;fontSize=12;html=1;endArrow=ERoneToMany;rounded=0;" edge="1" parent="IpOEvODAjYZc1RXMCT56-4" source="IpOEvODAjYZc1RXMCT56-6" target="IpOEvODAjYZc1RXMCT56-42">
          <mxGeometry width="100" height="100" relative="1" as="geometry">
            <mxPoint x="625" y="525" as="sourcePoint" />
            <mxPoint x="725" y="425" as="targetPoint" />
          </mxGeometry>
        </mxCell>
        <mxCell id="IpOEvODAjYZc1RXMCT56-111" value="" style="edgeStyle=entityRelationEdgeStyle;fontSize=12;html=1;endArrow=ERoneToMany;startArrow=ERmandOne;rounded=0;" edge="1" parent="IpOEvODAjYZc1RXMCT56-4" source="IpOEvODAjYZc1RXMCT56-6" target="IpOEvODAjYZc1RXMCT56-86">
          <mxGeometry width="100" height="100" relative="1" as="geometry">
            <mxPoint x="1385" y="360" as="sourcePoint" />
            <mxPoint x="1485" y="260" as="targetPoint" />
          </mxGeometry>
        </mxCell>
        <mxCell id="IpOEvODAjYZc1RXMCT56-112" value="" style="edgeStyle=entityRelationEdgeStyle;fontSize=12;html=1;endArrow=ERoneToMany;startArrow=ERmandOne;rounded=0;" edge="1" parent="IpOEvODAjYZc1RXMCT56-4" source="IpOEvODAjYZc1RXMCT56-68" target="IpOEvODAjYZc1RXMCT56-86">
          <mxGeometry width="100" height="100" relative="1" as="geometry">
            <mxPoint x="2046" y="375" as="sourcePoint" />
            <mxPoint x="2185" y="330" as="targetPoint" />
          </mxGeometry>
        </mxCell>
        <mxCell id="IpOEvODAjYZc1RXMCT56-113" value="&lt;h1&gt;注意&lt;/h1&gt;&lt;p style=&quot;&quot;&gt;userテーブルとclusterテーブルは多対多の関係&lt;/p&gt;&lt;p style=&quot;&quot;&gt;&lt;br&gt;アソシエーションテーブルを用いてモデルに関係性を定義&lt;br&gt;&lt;/p&gt;" style="text;html=1;strokeColor=none;fillColor=none;spacing=5;spacingTop=-20;whiteSpace=wrap;overflow=hidden;rounded=0;" vertex="1" parent="IpOEvODAjYZc1RXMCT56-4">
          <mxGeometry x="495" y="100" width="350" height="150" as="geometry" />
        </mxCell>
        <mxCell id="IpOEvODAjYZc1RXMCT56-114" value="&lt;font style=&quot;font-size: 30px;&quot;&gt;アプリケーション側&lt;/font&gt;" style="rounded=1;whiteSpace=wrap;html=1;fontStyle=5" vertex="1" parent="IpOEvODAjYZc1RXMCT56-4">
          <mxGeometry x="10" y="10" width="289" height="70" as="geometry" />
        </mxCell>
        <mxCell id="IpOEvODAjYZc1RXMCT56-115" value="&lt;span style=&quot;font-size: 30px;&quot;&gt;Iot Device API側&lt;/span&gt;" style="rounded=1;whiteSpace=wrap;html=1;fontStyle=5" vertex="1" parent="1">
          <mxGeometry x="4138" y="1580" width="289" height="70" as="geometry" />
        </mxCell>
        <mxCell id="IpOEvODAjYZc1RXMCT56-116" value="" style="rounded=0;whiteSpace=wrap;html=1;fillColor=#f5f5f5;fontColor=#333333;strokeColor=#666666;" vertex="1" parent="1">
          <mxGeometry x="428" y="130" width="3170" height="2470" as="geometry" />
        </mxCell>
        <mxCell id="IpOEvODAjYZc1RXMCT56-117" value="&lt;font style=&quot;font-size: 70px;&quot;&gt;大まかなシステム構成図&lt;/font&gt;" style="rounded=1;whiteSpace=wrap;html=1;fontStyle=5" vertex="1" parent="1">
          <mxGeometry x="378" y="40" width="1120" height="180" as="geometry" />
        </mxCell>
        <mxCell id="IpOEvODAjYZc1RXMCT56-118" value="" style="rounded=0;whiteSpace=wrap;html=1;" vertex="1" parent="1">
          <mxGeometry x="628" y="535" width="1000" height="610" as="geometry" />
        </mxCell>
        <mxCell id="IpOEvODAjYZc1RXMCT56-119" value="&lt;b&gt;&lt;font style=&quot;font-size: 30px;&quot;&gt;定期実行デーモン&lt;/font&gt;&lt;/b&gt;" style="rounded=0;whiteSpace=wrap;html=1;" vertex="1" parent="1">
          <mxGeometry x="628" y="535" width="260" height="70" as="geometry" />
        </mxCell>
        <mxCell id="IpOEvODAjYZc1RXMCT56-120" value="&lt;h1&gt;&lt;span style=&quot;font-size: 35px;&quot;&gt;目的&lt;/span&gt;&lt;/h1&gt;&lt;p&gt;&lt;span style=&quot;font-size: 24px;&quot;&gt;毎朝のルートユーザーを起こす処理や、クラスタリングなど、特定の時刻にプログラムが起動しなければいけない場合に、APIのトリガーとして処理系統にリクエストを行う。&lt;/span&gt;&lt;/p&gt;" style="text;html=1;strokeColor=none;fillColor=none;spacing=5;spacingTop=-20;whiteSpace=wrap;overflow=hidden;rounded=0;" vertex="1" parent="1">
          <mxGeometry x="668" y="635" width="350" height="260" as="geometry" />
        </mxCell>
        <mxCell id="IpOEvODAjYZc1RXMCT56-121" value="&lt;h1&gt;&lt;span style=&quot;font-size: 35px;&quot;&gt;環境&lt;/span&gt;&lt;/h1&gt;&lt;p&gt;&lt;span style=&quot;font-size: 24px;&quot;&gt;Linuxコマンド or AWS event_bridge＋Lambdaを用いて実装&lt;br&gt;&lt;/span&gt;&lt;/p&gt;" style="text;html=1;strokeColor=none;fillColor=none;spacing=5;spacingTop=-20;whiteSpace=wrap;overflow=hidden;rounded=0;" vertex="1" parent="1">
          <mxGeometry x="668" y="905" width="350" height="200" as="geometry" />
        </mxCell>
        <mxCell id="IpOEvODAjYZc1RXMCT56-122" value="&lt;h1&gt;&lt;span style=&quot;font-size: 35px;&quot;&gt;仕様&lt;/span&gt;&lt;/h1&gt;&lt;p&gt;&lt;font style=&quot;font-size: 24px;&quot;&gt;&lt;u&gt;起動時刻設定&lt;/u&gt;&lt;/font&gt;&lt;/p&gt;&lt;p&gt;&lt;font style=&quot;font-size: 12px;&quot;&gt;アプリケーション側から定期実行の時刻を編集できるようにする。APIとして時刻を受け取るエンドポイントを作るか、時刻設定用のデータベースを設置し、アプリケーション側から接続・編集できるようにする。&lt;/font&gt;&lt;/p&gt;&lt;p&gt;&lt;font style=&quot;font-size: 24px;&quot;&gt;&lt;u&gt;クラスタリング依頼&lt;/u&gt;&lt;/font&gt;&lt;/p&gt;&lt;p&gt;アラームの設定時刻をもとに、ユーザーをクラスタリングするようにFlaskアプリケーション側に通知する。&lt;/p&gt;&lt;p&gt;&lt;font style=&quot;font-size: 24px;&quot;&gt;&lt;u&gt;ルートユーザー起床依頼&lt;/u&gt;&lt;/font&gt;&lt;/p&gt;&lt;p&gt;&lt;font style=&quot;font-size: 12px;&quot;&gt;各クラスターに設定された起床時刻(middle_wakeup_time)になると、FlaskAPI側にルートユーザーを起こすことを通知、&lt;br&gt;ここで初めてFlaskAPI側の木構造をたどってユーザーを起こしていくプログラムが起動&lt;/font&gt;&lt;/p&gt;" style="text;html=1;strokeColor=none;fillColor=none;spacing=5;spacingTop=-20;whiteSpace=wrap;overflow=hidden;rounded=0;" vertex="1" parent="1">
          <mxGeometry x="1158" y="635" width="350" height="450" as="geometry" />
        </mxCell>
        <mxCell id="IpOEvODAjYZc1RXMCT56-123" value="" style="rounded=0;whiteSpace=wrap;html=1;" vertex="1" parent="1">
          <mxGeometry x="628" y="1625" width="1000" height="610" as="geometry" />
        </mxCell>
        <mxCell id="IpOEvODAjYZc1RXMCT56-124" value="&lt;b&gt;&lt;font style=&quot;font-size: 30px;&quot;&gt;Iot Device API&lt;/font&gt;&lt;/b&gt;" style="rounded=0;whiteSpace=wrap;html=1;" vertex="1" parent="1">
          <mxGeometry x="628" y="1625" width="260" height="70" as="geometry" />
        </mxCell>
        <mxCell id="IpOEvODAjYZc1RXMCT56-125" value="&lt;h1&gt;&lt;span style=&quot;font-size: 35px;&quot;&gt;目的&lt;/span&gt;&lt;/h1&gt;&lt;p&gt;&lt;span style=&quot;font-size: 24px;&quot;&gt;実機の仕様を考えずにFlaskアプリケーションを動かすために、独立したAPIとしてユーザーの状態を提供 and 実機への指示を受け取る。&lt;/span&gt;&lt;/p&gt;" style="text;html=1;strokeColor=none;fillColor=none;spacing=5;spacingTop=-20;whiteSpace=wrap;overflow=hidden;rounded=0;" vertex="1" parent="1">
          <mxGeometry x="668" y="1725" width="350" height="260" as="geometry" />
        </mxCell>
        <mxCell id="IpOEvODAjYZc1RXMCT56-126" value="&lt;h1&gt;&lt;span style=&quot;font-size: 35px;&quot;&gt;環境&lt;/span&gt;&lt;/h1&gt;&lt;p&gt;&lt;font style=&quot;font-size: 24px;&quot;&gt;aws上で&lt;/font&gt;&lt;/p&gt;&lt;p&gt;&lt;font style=&quot;font-size: 24px;&quot;&gt;IotCore,DataStream,Lambda,&lt;/font&gt;&lt;/p&gt;&lt;p&gt;&lt;span style=&quot;font-size: 24px; background-color: initial;&quot;&gt;DynamoDBを用いて実装　詳しくはaws公式ハンズオンを参照&lt;/span&gt;&lt;/p&gt;" style="text;html=1;strokeColor=none;fillColor=none;spacing=5;spacingTop=-20;whiteSpace=wrap;overflow=hidden;rounded=0;" vertex="1" parent="1">
          <mxGeometry x="668" y="1995" width="350" height="200" as="geometry" />
        </mxCell>
        <mxCell id="IpOEvODAjYZc1RXMCT56-127" value="&lt;h1&gt;&lt;span style=&quot;font-size: 35px;&quot;&gt;仕様&lt;/span&gt;&lt;/h1&gt;&lt;p&gt;&lt;font style=&quot;font-size: 24px;&quot;&gt;&lt;u&gt;起あ&lt;/u&gt;&lt;/font&gt;&lt;/p&gt;&lt;p&gt;&lt;font style=&quot;font-size: 12px;&quot;&gt;アプリケーション側から定期実行の時刻を編集できるようにする。APIとして時刻を受け取るエンドポイントを作るか、時刻設定用のデータベースを設置し、アプリケーション側から接続・編集できるようにする。&lt;/font&gt;&lt;/p&gt;&lt;p&gt;&lt;font style=&quot;font-size: 24px;&quot;&gt;&lt;u&gt;クラスタリング依頼&lt;/u&gt;&lt;/font&gt;&lt;/p&gt;&lt;p&gt;アラームの設定時刻をもとに、ユーザーをクラスタリングするようにFlaskアプリケーション側に通知する。&lt;/p&gt;&lt;p&gt;&lt;font style=&quot;font-size: 24px;&quot;&gt;&lt;u&gt;ルートユーザー起床依頼&lt;/u&gt;&lt;/font&gt;&lt;/p&gt;&lt;p&gt;&lt;font style=&quot;font-size: 12px;&quot;&gt;各クラスターに設定された起床時刻(middle_wakeup_time)になると、FlaskAPI側にルートユーザーを起こすことを通知、&lt;br&gt;ここで初めてFlaskAPI側の木構造をたどってユーザーを起こしていくプログラムが起動&lt;/font&gt;&lt;/p&gt;" style="text;html=1;strokeColor=none;fillColor=none;spacing=5;spacingTop=-20;whiteSpace=wrap;overflow=hidden;rounded=0;" vertex="1" parent="1">
          <mxGeometry x="1158" y="1725" width="350" height="450" as="geometry" />
        </mxCell>
        <mxCell id="IpOEvODAjYZc1RXMCT56-128" value="" style="rounded=0;whiteSpace=wrap;html=1;" vertex="1" parent="1">
          <mxGeometry x="2278" y="535" width="1000" height="610" as="geometry" />
        </mxCell>
        <mxCell id="IpOEvODAjYZc1RXMCT56-129" value="&lt;b&gt;&lt;font style=&quot;font-size: 30px;&quot;&gt;Flask App&lt;/font&gt;&lt;/b&gt;" style="rounded=0;whiteSpace=wrap;html=1;" vertex="1" parent="1">
          <mxGeometry x="2278" y="535" width="260" height="70" as="geometry" />
        </mxCell>
        <mxCell id="IpOEvODAjYZc1RXMCT56-130" value="&lt;h1&gt;&lt;span style=&quot;font-size: 35px;&quot;&gt;目的&lt;/span&gt;&lt;/h1&gt;&lt;p&gt;&lt;span style=&quot;font-size: 24px;&quot;&gt;会員登録、時刻設定、クラスタリング、ツリーの構築、ユーザーを起床させるなどのシステムの中核部分を担当&lt;/span&gt;&lt;/p&gt;" style="text;html=1;strokeColor=none;fillColor=none;spacing=5;spacingTop=-20;whiteSpace=wrap;overflow=hidden;rounded=0;" vertex="1" parent="1">
          <mxGeometry x="2318" y="635" width="350" height="260" as="geometry" />
        </mxCell>
        <mxCell id="IpOEvODAjYZc1RXMCT56-131" value="&lt;h1&gt;&lt;span style=&quot;font-size: 35px;&quot;&gt;環境&lt;/span&gt;&lt;/h1&gt;&lt;p&gt;&lt;span style=&quot;font-size: 24px;&quot;&gt;flask,react,docker&lt;br&gt;&lt;/span&gt;&lt;/p&gt;" style="text;html=1;strokeColor=none;fillColor=none;spacing=5;spacingTop=-20;whiteSpace=wrap;overflow=hidden;rounded=0;" vertex="1" parent="1">
          <mxGeometry x="2318" y="905" width="350" height="200" as="geometry" />
        </mxCell>
        <mxCell id="IpOEvODAjYZc1RXMCT56-132" value="&lt;h1&gt;&lt;span style=&quot;font-size: 35px;&quot;&gt;仕様&lt;/span&gt;&lt;/h1&gt;&lt;p&gt;&lt;font style=&quot;font-size: 24px;&quot;&gt;&lt;u&gt;起動時刻設定&lt;/u&gt;&lt;/font&gt;&lt;/p&gt;&lt;p&gt;&lt;font style=&quot;font-size: 12px;&quot;&gt;アプリケーション側から定期実行の時刻を編集できるようにする。APIとして時刻を受け取るエンドポイントを作るか、時刻設定用のデータベースを設置し、アプリケーション側から接続・編集できるようにする。&lt;/font&gt;&lt;/p&gt;&lt;p&gt;&lt;font style=&quot;font-size: 24px;&quot;&gt;&lt;u&gt;クラスタリング依頼&lt;/u&gt;&lt;/font&gt;&lt;/p&gt;&lt;p&gt;アラームの設定時刻をもとに、ユーザーをクラスタリングするようにFlaskアプリケーション側に通知する。&lt;/p&gt;&lt;p&gt;&lt;font style=&quot;font-size: 24px;&quot;&gt;&lt;u&gt;ルートユーザー起床依頼&lt;/u&gt;&lt;/font&gt;&lt;/p&gt;&lt;p&gt;&lt;font style=&quot;font-size: 12px;&quot;&gt;各クラスターに設定された起床時刻(middle_wakeup_time)になると、FlaskAPI側にルートユーザーを起こすことを通知、&lt;br&gt;ここで初めてFlaskAPI側の木構造をたどってユーザーを起こしていくプログラムが起動&lt;/font&gt;&lt;/p&gt;" style="text;html=1;strokeColor=none;fillColor=none;spacing=5;spacingTop=-20;whiteSpace=wrap;overflow=hidden;rounded=0;" vertex="1" parent="1">
          <mxGeometry x="2808" y="635" width="350" height="450" as="geometry" />
        </mxCell>
        <mxCell id="IpOEvODAjYZc1RXMCT56-133" value="" style="html=1;shadow=0;dashed=0;align=center;verticalAlign=middle;shape=mxgraph.arrows2.arrow;dy=0.6;dx=40;direction=south;notch=0;rotation=40;" vertex="1" parent="1">
          <mxGeometry x="2088" y="1145" width="70" height="995" as="geometry" />
        </mxCell>
        <mxCell id="IpOEvODAjYZc1RXMCT56-134" value="" style="html=1;shadow=0;dashed=0;align=center;verticalAlign=middle;shape=mxgraph.arrows2.arrow;dy=0.6;dx=40;direction=south;notch=0;" vertex="1" parent="1">
          <mxGeometry x="898" y="1230" width="70" height="340" as="geometry" />
        </mxCell>
        <mxCell id="IpOEvODAjYZc1RXMCT56-135" value="" style="html=1;shadow=0;dashed=0;align=center;verticalAlign=middle;shape=mxgraph.arrows2.arrow;dy=0.6;dx=40;direction=south;notch=0;rotation=-140;" vertex="1" parent="1">
          <mxGeometry x="1998" y="1070" width="70" height="995" as="geometry" />
        </mxCell>
        <mxCell id="IpOEvODAjYZc1RXMCT56-136" value="&lt;h1&gt;&lt;span style=&quot;font-weight: 400;&quot;&gt;&lt;u&gt;①各デバイスへアラームを通知&lt;/u&gt;&lt;/span&gt;&lt;/h1&gt;&lt;p&gt;&lt;font style=&quot;font-size: 20px;&quot;&gt;divice_idを渡してアラームを鳴らす依頼を行う。&lt;/font&gt;&lt;/p&gt;&lt;p&gt;&lt;font style=&quot;font-size: 24px;&quot;&gt;&lt;u&gt;②木の成長度を通知&lt;/u&gt;&lt;/font&gt;&lt;/p&gt;&lt;p&gt;&lt;font style=&quot;font-size: 20px;&quot;&gt;アラームの設定時刻をもとに、ユーザーをクラスタリングするようにFlaskアプリケーション側に通知する。&lt;/font&gt;&lt;/p&gt;&lt;p&gt;&lt;br&gt;&lt;/p&gt;" style="text;html=1;strokeColor=none;fillColor=none;spacing=5;spacingTop=-20;whiteSpace=wrap;overflow=hidden;rounded=0;" vertex="1" parent="1">
          <mxGeometry x="2223" y="1680" width="455" height="435" as="geometry" />
        </mxCell>
        <mxCell id="IpOEvODAjYZc1RXMCT56-137" value="" style="html=1;shadow=0;dashed=0;align=center;verticalAlign=middle;shape=mxgraph.arrows2.arrow;dy=0.6;dx=40;flipH=1;notch=0;" vertex="1" parent="1">
          <mxGeometry x="1668" y="735" width="580" height="70" as="geometry" />
        </mxCell>
        <mxCell id="IpOEvODAjYZc1RXMCT56-138" value="" style="html=1;shadow=0;dashed=0;align=center;verticalAlign=middle;shape=mxgraph.arrows2.arrow;dy=0.6;dx=40;flipH=1;notch=0;rotation=-180;" vertex="1" parent="1">
          <mxGeometry x="1678" y="875" width="580" height="70" as="geometry" />
        </mxCell>
        <mxCell id="IpOEvODAjYZc1RXMCT56-139" value="&lt;h1&gt;&lt;u style=&quot;background-color: initial; font-weight: normal;&quot;&gt;ルートユーザー起床依頼&lt;/u&gt;&lt;br&gt;&lt;/h1&gt;&lt;p style=&quot;font-size: 20px;&quot;&gt;&lt;font style=&quot;font-size: 20px;&quot;&gt;各クラスターに設定された起床時刻(middle_wakeup_time)になると、FlaskAPI側にルートユーザーを起こすことを通知、&lt;br&gt;ここで初めてFlaskAPI側の木構造をたどってユーザーを起こしていくプログラムが起動&lt;/font&gt;&lt;/p&gt;" style="text;html=1;strokeColor=none;fillColor=none;spacing=5;spacingTop=-20;whiteSpace=wrap;overflow=hidden;rounded=0;" vertex="1" parent="1">
          <mxGeometry x="1758" y="525" width="455" height="210" as="geometry" />
        </mxCell>
        <mxCell id="IpOEvODAjYZc1RXMCT56-140" value="&lt;h1&gt;&lt;u style=&quot;background-color: initial; font-weight: normal;&quot;&gt;クラスタリング依頼&lt;/u&gt;&lt;br&gt;&lt;/h1&gt;&lt;p style=&quot;font-size: 20px;&quot;&gt;深夜（午前３時ごろ）にユーザー設定をもとにクラスタリングand木の構築を依頼&lt;/p&gt;&lt;p style=&quot;font-size: 20px;&quot;&gt;各クラスターのルートユーザーとその時刻をjson形式で受け取る。&lt;/p&gt;" style="text;html=1;strokeColor=none;fillColor=none;spacing=5;spacingTop=-20;whiteSpace=wrap;overflow=hidden;rounded=0;" vertex="1" parent="1">
          <mxGeometry x="1768" y="959" width="455" height="210" as="geometry" />
        </mxCell>
        <mxCell id="IpOEvODAjYZc1RXMCT56-141" value="&lt;h1&gt;&lt;u style=&quot;background-color: initial; font-weight: normal;&quot;&gt;ユーザー起床確認通知&lt;/u&gt;&lt;br&gt;&lt;/h1&gt;&lt;p style=&quot;font-size: 20px;&quot;&gt;デバイスシャドウを参照し、ユーザーが起きたことを検知し、device_idを通知する&lt;/p&gt;" style="text;html=1;strokeColor=none;fillColor=none;spacing=5;spacingTop=-20;whiteSpace=wrap;overflow=hidden;rounded=0;" vertex="1" parent="1">
          <mxGeometry x="1598" y="1360" width="455" height="210" as="geometry" />
        </mxCell>
        <mxCell id="IpOEvODAjYZc1RXMCT56-142" value="&lt;h1&gt;&lt;span style=&quot;font-weight: 400;&quot;&gt;&lt;u&gt;ルートユーザー起床依頼&lt;/u&gt;&lt;/span&gt;&lt;/h1&gt;&lt;p style=&quot;font-size: 20px;&quot;&gt;設定時間になると、Device APIのエンドポイントに向けてdevice_idを通知&lt;/p&gt;" style="text;html=1;strokeColor=none;fillColor=none;spacing=5;spacingTop=-20;whiteSpace=wrap;overflow=hidden;rounded=0;" vertex="1" parent="1">
          <mxGeometry x="418" y="1310" width="455" height="210" as="geometry" />
        </mxCell>
        <mxCell id="IpOEvODAjYZc1RXMCT56-143" value="AWS Cloud" style="points=[[0,0],[0.25,0],[0.5,0],[0.75,0],[1,0],[1,0.25],[1,0.5],[1,0.75],[1,1],[0.75,1],[0.5,1],[0.25,1],[0,1],[0,0.75],[0,0.5],[0,0.25]];outlineConnect=0;gradientColor=none;html=1;whiteSpace=wrap;fontSize=12;fontStyle=0;container=1;pointerEvents=0;collapsible=0;recursiveResize=0;shape=mxgraph.aws4.group;grIcon=mxgraph.aws4.group_aws_cloud_alt;strokeColor=#232F3E;fillColor=none;verticalAlign=top;align=left;spacingLeft=30;fontColor=#232F3E;dashed=0;" vertex="1" parent="1">
          <mxGeometry x="678" y="2890" width="1560" height="657" as="geometry" />
        </mxCell>
        <mxCell id="IpOEvODAjYZc1RXMCT56-144" value="" style="sketch=0;points=[[0,0,0],[0.25,0,0],[0.5,0,0],[0.75,0,0],[1,0,0],[0,1,0],[0.25,1,0],[0.5,1,0],[0.75,1,0],[1,1,0],[0,0.25,0],[0,0.5,0],[0,0.75,0],[1,0.25,0],[1,0.5,0],[1,0.75,0]];outlineConnect=0;fontColor=#232F3E;fillColor=#7AA116;strokeColor=#ffffff;dashed=0;verticalLabelPosition=bottom;verticalAlign=top;align=center;html=1;fontSize=12;fontStyle=0;aspect=fixed;shape=mxgraph.aws4.resourceIcon;resIcon=mxgraph.aws4.iot_core;" vertex="1" parent="IpOEvODAjYZc1RXMCT56-143">
          <mxGeometry x="60" y="487" width="78" height="78" as="geometry" />
        </mxCell>
        <mxCell id="IpOEvODAjYZc1RXMCT56-145" value="" style="sketch=0;points=[[0,0,0],[0.25,0,0],[0.5,0,0],[0.75,0,0],[1,0,0],[0,1,0],[0.25,1,0],[0.5,1,0],[0.75,1,0],[1,1,0],[0,0.25,0],[0,0.5,0],[0,0.75,0],[1,0.25,0],[1,0.5,0],[1,0.75,0]];outlineConnect=0;fontColor=#232F3E;fillColor=#8C4FFF;strokeColor=#ffffff;dashed=0;verticalLabelPosition=bottom;verticalAlign=top;align=center;html=1;fontSize=12;fontStyle=0;aspect=fixed;shape=mxgraph.aws4.resourceIcon;resIcon=mxgraph.aws4.kinesis_data_streams;" vertex="1" parent="IpOEvODAjYZc1RXMCT56-143">
          <mxGeometry x="220" y="487" width="78" height="78" as="geometry" />
        </mxCell>
        <mxCell id="IpOEvODAjYZc1RXMCT56-146" style="edgeStyle=orthogonalEdgeStyle;rounded=0;orthogonalLoop=1;jettySize=auto;html=1;exitX=1;exitY=0.5;exitDx=0;exitDy=0;exitPerimeter=0;entryX=0;entryY=0.5;entryDx=0;entryDy=0;entryPerimeter=0;" edge="1" parent="IpOEvODAjYZc1RXMCT56-143" source="IpOEvODAjYZc1RXMCT56-144" target="IpOEvODAjYZc1RXMCT56-145">
          <mxGeometry relative="1" as="geometry" />
        </mxCell>
        <mxCell id="IpOEvODAjYZc1RXMCT56-147" value="" style="sketch=0;points=[[0,0,0],[0.25,0,0],[0.5,0,0],[0.75,0,0],[1,0,0],[0,1,0],[0.25,1,0],[0.5,1,0],[0.75,1,0],[1,1,0],[0,0.25,0],[0,0.5,0],[0,0.75,0],[1,0.25,0],[1,0.5,0],[1,0.75,0]];outlineConnect=0;fontColor=#232F3E;fillColor=#255ed0;strokeColor=#ffffff;dashed=0;verticalLabelPosition=bottom;verticalAlign=top;align=center;html=1;fontSize=12;fontStyle=0;aspect=fixed;shape=mxgraph.aws4.resourceIcon;resIcon=mxgraph.aws4.dynamodb;" vertex="1" parent="IpOEvODAjYZc1RXMCT56-143">
          <mxGeometry x="540" y="487" width="78" height="78" as="geometry" />
        </mxCell>
        <mxCell id="IpOEvODAjYZc1RXMCT56-148" value="" style="sketch=0;points=[[0,0,0],[0.25,0,0],[0.5,0,0],[0.75,0,0],[1,0,0],[0,1,0],[0.25,1,0],[0.5,1,0],[0.75,1,0],[1,1,0],[0,0.25,0],[0,0.5,0],[0,0.75,0],[1,0.25,0],[1,0.5,0],[1,0.75,0]];outlineConnect=0;fontColor=#232F3E;fillColor=#ED7100;strokeColor=#ffffff;dashed=0;verticalLabelPosition=bottom;verticalAlign=top;align=center;html=1;fontSize=12;fontStyle=0;aspect=fixed;shape=mxgraph.aws4.resourceIcon;resIcon=mxgraph.aws4.lambda;" vertex="1" parent="IpOEvODAjYZc1RXMCT56-143">
          <mxGeometry x="380" y="487" width="78" height="78" as="geometry" />
        </mxCell>
        <mxCell id="IpOEvODAjYZc1RXMCT56-149" style="edgeStyle=orthogonalEdgeStyle;rounded=0;orthogonalLoop=1;jettySize=auto;html=1;exitX=1;exitY=0.5;exitDx=0;exitDy=0;exitPerimeter=0;entryX=0;entryY=0.5;entryDx=0;entryDy=0;entryPerimeter=0;" edge="1" parent="IpOEvODAjYZc1RXMCT56-143" source="IpOEvODAjYZc1RXMCT56-145" target="IpOEvODAjYZc1RXMCT56-148">
          <mxGeometry relative="1" as="geometry" />
        </mxCell>
        <mxCell id="IpOEvODAjYZc1RXMCT56-150" style="edgeStyle=orthogonalEdgeStyle;rounded=0;orthogonalLoop=1;jettySize=auto;html=1;exitX=1;exitY=0.5;exitDx=0;exitDy=0;exitPerimeter=0;entryX=0;entryY=0.5;entryDx=0;entryDy=0;entryPerimeter=0;" edge="1" parent="IpOEvODAjYZc1RXMCT56-143" source="IpOEvODAjYZc1RXMCT56-148" target="IpOEvODAjYZc1RXMCT56-147">
          <mxGeometry relative="1" as="geometry" />
        </mxCell>
        <mxCell id="IpOEvODAjYZc1RXMCT56-151" style="edgeStyle=orthogonalEdgeStyle;rounded=0;orthogonalLoop=1;jettySize=auto;html=1;exitX=0.5;exitY=1;exitDx=0;exitDy=0;exitPerimeter=0;" edge="1" parent="IpOEvODAjYZc1RXMCT56-143" source="IpOEvODAjYZc1RXMCT56-153" target="IpOEvODAjYZc1RXMCT56-147">
          <mxGeometry relative="1" as="geometry" />
        </mxCell>
        <mxCell id="IpOEvODAjYZc1RXMCT56-152" style="edgeStyle=orthogonalEdgeStyle;rounded=0;orthogonalLoop=1;jettySize=auto;html=1;exitX=0;exitY=0.5;exitDx=0;exitDy=0;exitPerimeter=0;" edge="1" parent="IpOEvODAjYZc1RXMCT56-143" source="IpOEvODAjYZc1RXMCT56-153" target="IpOEvODAjYZc1RXMCT56-144">
          <mxGeometry relative="1" as="geometry" />
        </mxCell>
        <mxCell id="IpOEvODAjYZc1RXMCT56-153" value="" style="sketch=0;points=[[0,0,0],[0.25,0,0],[0.5,0,0],[0.75,0,0],[1,0,0],[0,1,0],[0.25,1,0],[0.5,1,0],[0.75,1,0],[1,1,0],[0,0.25,0],[0,0.5,0],[0,0.75,0],[1,0.25,0],[1,0.5,0],[1,0.75,0]];outlineConnect=0;fontColor=#232F3E;fillColor=#ED7100;strokeColor=#ffffff;dashed=0;verticalLabelPosition=bottom;verticalAlign=top;align=center;html=1;fontSize=12;fontStyle=0;aspect=fixed;shape=mxgraph.aws4.resourceIcon;resIcon=mxgraph.aws4.lambda;" vertex="1" parent="IpOEvODAjYZc1RXMCT56-143">
          <mxGeometry x="540" y="340" width="78" height="78" as="geometry" />
        </mxCell>
        <mxCell id="IpOEvODAjYZc1RXMCT56-154" value="" style="edgeStyle=orthogonalEdgeStyle;rounded=0;orthogonalLoop=1;jettySize=auto;html=1;" edge="1" parent="IpOEvODAjYZc1RXMCT56-143" source="IpOEvODAjYZc1RXMCT56-156" target="IpOEvODAjYZc1RXMCT56-153">
          <mxGeometry relative="1" as="geometry" />
        </mxCell>
        <mxCell id="IpOEvODAjYZc1RXMCT56-155" style="edgeStyle=orthogonalEdgeStyle;rounded=0;orthogonalLoop=1;jettySize=auto;html=1;exitX=0.5;exitY=1;exitDx=0;exitDy=0;exitPerimeter=0;" edge="1" parent="IpOEvODAjYZc1RXMCT56-143" source="IpOEvODAjYZc1RXMCT56-156" target="IpOEvODAjYZc1RXMCT56-153">
          <mxGeometry relative="1" as="geometry" />
        </mxCell>
        <mxCell id="IpOEvODAjYZc1RXMCT56-156" value="" style="sketch=0;points=[[0,0,0],[0.25,0,0],[0.5,0,0],[0.75,0,0],[1,0,0],[0,1,0],[0.25,1,0],[0.5,1,0],[0.75,1,0],[1,1,0],[0,0.25,0],[0,0.5,0],[0,0.75,0],[1,0.25,0],[1,0.5,0],[1,0.75,0]];outlineConnect=0;fontColor=#232F3E;fillColor=#E7157B;strokeColor=#ffffff;dashed=0;verticalLabelPosition=bottom;verticalAlign=top;align=center;html=1;fontSize=12;fontStyle=0;aspect=fixed;shape=mxgraph.aws4.resourceIcon;resIcon=mxgraph.aws4.api_gateway;" vertex="1" parent="IpOEvODAjYZc1RXMCT56-143">
          <mxGeometry x="540" y="180" width="78" height="78" as="geometry" />
        </mxCell>
        <mxCell id="IpOEvODAjYZc1RXMCT56-157" value="" style="sketch=0;outlineConnect=0;fontColor=#232F3E;gradientColor=none;fillColor=#7AA116;strokeColor=none;dashed=0;verticalLabelPosition=bottom;verticalAlign=top;align=center;html=1;fontSize=12;fontStyle=0;aspect=fixed;pointerEvents=1;shape=mxgraph.aws4.shadow;" vertex="1" parent="IpOEvODAjYZc1RXMCT56-143">
          <mxGeometry x="280" y="340" width="78" height="77" as="geometry" />
        </mxCell>
        <mxCell id="IpOEvODAjYZc1RXMCT56-158" value="VPC" style="points=[[0,0],[0.25,0],[0.5,0],[0.75,0],[1,0],[1,0.25],[1,0.5],[1,0.75],[1,1],[0.75,1],[0.5,1],[0.25,1],[0,1],[0,0.75],[0,0.5],[0,0.25]];outlineConnect=0;gradientColor=none;html=1;whiteSpace=wrap;fontSize=12;fontStyle=0;container=1;pointerEvents=0;collapsible=0;recursiveResize=0;shape=mxgraph.aws4.group;grIcon=mxgraph.aws4.group_vpc2;strokeColor=#8C4FFF;fillColor=none;verticalAlign=top;align=left;spacingLeft=30;fontColor=#AAB7B8;dashed=0;" vertex="1" parent="IpOEvODAjYZc1RXMCT56-143">
          <mxGeometry x="960" y="54" width="540" height="556" as="geometry" />
        </mxCell>
        <mxCell id="IpOEvODAjYZc1RXMCT56-159" value="Public subnet" style="points=[[0,0],[0.25,0],[0.5,0],[0.75,0],[1,0],[1,0.25],[1,0.5],[1,0.75],[1,1],[0.75,1],[0.5,1],[0.25,1],[0,1],[0,0.75],[0,0.5],[0,0.25]];outlineConnect=0;gradientColor=none;html=1;whiteSpace=wrap;fontSize=12;fontStyle=0;container=1;pointerEvents=0;collapsible=0;recursiveResize=0;shape=mxgraph.aws4.group;grIcon=mxgraph.aws4.group_security_group;grStroke=0;strokeColor=#7AA116;fillColor=#F2F6E8;verticalAlign=top;align=left;spacingLeft=30;fontColor=#248814;dashed=0;" vertex="1" parent="IpOEvODAjYZc1RXMCT56-158">
          <mxGeometry x="30" y="41.5" width="480" height="488.5" as="geometry" />
        </mxCell>
        <mxCell id="IpOEvODAjYZc1RXMCT56-160" value="EC2 instance contents" style="points=[[0,0],[0.25,0],[0.5,0],[0.75,0],[1,0],[1,0.25],[1,0.5],[1,0.75],[1,1],[0.75,1],[0.5,1],[0.25,1],[0,1],[0,0.75],[0,0.5],[0,0.25]];outlineConnect=0;gradientColor=none;html=1;whiteSpace=wrap;fontSize=12;fontStyle=0;container=1;pointerEvents=0;collapsible=0;recursiveResize=0;shape=mxgraph.aws4.group;grIcon=mxgraph.aws4.group_ec2_instance_contents;strokeColor=#D86613;fillColor=none;verticalAlign=top;align=left;spacingLeft=30;fontColor=#D86613;dashed=0;" vertex="1" parent="IpOEvODAjYZc1RXMCT56-159">
          <mxGeometry x="30" y="60" width="420" height="410" as="geometry" />
        </mxCell>
        <mxCell id="IpOEvODAjYZc1RXMCT56-161" value="" style="sketch=0;points=[[0,0,0],[0.25,0,0],[0.5,0,0],[0.75,0,0],[1,0,0],[0,1,0],[0.25,1,0],[0.5,1,0],[0.75,1,0],[1,1,0],[0,0.25,0],[0,0.5,0],[0,0.75,0],[1,0.25,0],[1,0.5,0],[1,0.75,0]];outlineConnect=0;fontColor=#232F3E;fillColor=#7AA116;strokeColor=#ffffff;dashed=0;verticalLabelPosition=bottom;verticalAlign=top;align=center;html=1;fontSize=12;fontStyle=0;aspect=fixed;shape=mxgraph.aws4.resourceIcon;resIcon=mxgraph.aws4.internet_of_things;" vertex="1" parent="1">
          <mxGeometry x="40" y="3170" width="78" height="78" as="geometry" />
        </mxCell>
        <mxCell id="IpOEvODAjYZc1RXMCT56-162" value="" style="sketch=0;points=[[0,0,0],[0.25,0,0],[0.5,0,0],[0.75,0,0],[1,0,0],[0,1,0],[0.25,1,0],[0.5,1,0],[0.75,1,0],[1,1,0],[0,0.25,0],[0,0.5,0],[0,0.75,0],[1,0.25,0],[1,0.5,0],[1,0.75,0]];outlineConnect=0;fontColor=#232F3E;fillColor=#ED7100;strokeColor=#ffffff;dashed=0;verticalLabelPosition=bottom;verticalAlign=top;align=center;html=1;fontSize=12;fontStyle=0;aspect=fixed;shape=mxgraph.aws4.resourceIcon;resIcon=mxgraph.aws4.lambda;" vertex="1" parent="1">
          <mxGeometry x="348" y="3170" width="78" height="78" as="geometry" />
        </mxCell>
        <mxCell id="IpOEvODAjYZc1RXMCT56-163" value="" style="sketch=0;points=[[0,0,0],[0.25,0,0],[0.5,0,0],[0.75,0,0],[1,0,0],[0,1,0],[0.25,1,0],[0.5,1,0],[0.75,1,0],[1,1,0],[0,0.25,0],[0,0.5,0],[0,0.75,0],[1,0.25,0],[1,0.5,0],[1,0.75,0]];outlineConnect=0;fontColor=#232F3E;fillColor=#ED7100;strokeColor=#ffffff;dashed=0;verticalLabelPosition=bottom;verticalAlign=top;align=center;html=1;fontSize=12;fontStyle=0;aspect=fixed;shape=mxgraph.aws4.resourceIcon;resIcon=mxgraph.aws4.lambda;" vertex="1" parent="1">
          <mxGeometry x="908" y="3770" width="78" height="78" as="geometry" />
        </mxCell>
      </root>
    </mxGraphModel>
  </diagram>
</mxfile>
